<svg xmlns="http://www.w3.org/2000/svg" width="822" height="236"
     viewBox="0 0 822 236">
  <defs>
    <clipPath id="roundedCard3">
      <rect x="0" y="0" width="822" height="236" rx="12" ry="12"/>
    </clipPath>
  </defs>
  <g clip-path="url(#roundedCard3)">
    <rect x="0" y="0" width="822" height="236" fill="#0d1117"/>
    <rect x="0" y="0" width="822" height="34" fill="#161b22"/>
    <circle cx="20" cy="17.0" r="5.5" fill="#ff5f56"/>
    <circle cx="38" cy="17.0" r="5.5" fill="#ffbd2e"/>
    <circle cx="56" cy="17.0" r="5.5" fill="#27c93f"/>
    <text x="411.0" y="21.0" text-anchor="middle"
          font-family="SFMono-Regular, Consolas, monospace" font-size="12" fill="#8b949e">pryteee: ~/contributions --graph</text>

    <text x="54" y="56" font-family="SFMono-Regular, Consolas, monospace" font-size="10" fill="#8b949e">Aug</text><text x="124" y="56" font-family="SFMono-Regular, Consolas, monospace" font-size="10" fill="#8b949e">Sep</text><text x="180" y="56" font-family="SFMono-Regular, Consolas, monospace" font-size="10" fill="#8b949e">Oct</text><text x="236" y="56" font-family="SFMono-Regular, Consolas, monospace" font-size="10" fill="#8b949e">Nov</text><text x="306" y="56" font-family="SFMono-Regular, Consolas, monospace" font-size="10" fill="#8b949e">Dec</text><text x="362" y="56" font-family="SFMono-Regular, Consolas, monospace" font-size="10" fill="#8b949e">Jan</text><text x="432" y="56" font-family="SFMono-Regular, Consolas, monospace" font-size="10" fill="#8b949e">Feb</text><text x="488" y="56" font-family="SFMono-Regular, Consolas, monospace" font-size="10" fill="#8b949e">Mar</text><text x="544" y="56" font-family="SFMono-Regular, Consolas, monospace" font-size="10" fill="#8b949e">Apr</text><text x="600" y="56" font-family="SFMono-Regular, Consolas, monospace" font-size="10" fill="#8b949e">May</text><text x="670" y="56" font-family="SFMono-Regular, Consolas, monospace" font-size="10" fill="#8b949e">Jun</text><text x="726" y="56" font-family="SFMono-Regular, Consolas, monospace" font-size="10" fill="#8b949e">Jul</text>
    <text x="30" y="91" text-anchor="end" font-family="SFMono-Regular, Consolas, monospace" font-size="10" fill="#8b949e">Mon</text><text x="30" y="119" text-anchor="end" font-family="SFMono-Regular, Consolas, monospace" font-size="10" fill="#8b949e">Wed</text><text x="30" y="147" text-anchor="end" font-family="SFMono-Regular, Consolas, monospace" font-size="10" fill="#8b949e">Fri</text>
    <rect x="40" y="68" width="11" height="11" rx="2" ry="2" fill="#161b22"><title>2025-07-20: 0 contributions</title></rect><rect x="40" y="82" width="11" height="11" rx="2" ry="2" fill="#161b22"><title>2025-07-21: 0 contributions</title></rect><rect x="40" y="96" width="11" height="11" rx="2" ry="2" fill="#161b22"><title>2025-07-22: 0 contributions</title></rect><rect x="40" y="110" width="11" height="11" rx="2" ry="2" fill="#161b22"><title>2025-07-23: 0 contributions</title></rect><rect x="40" y="124" width="11" height="11" rx="2" ry="2" fill="#161b22"><title>2025-07-24: 0 contributions</title></rect><rect x="40" y="138" width="11" height="11" rx="2" ry="2" fill="#161b22"><title>2025-07-25: 0 contributions</title></rect><rect x="40" y="152" width="11" height="11" rx="2" ry="2" fill="#161b22"><title>2025-07-26: 0 contributions</title></rect><rect x="54" y="68" width="11" height="11" rx="2" ry="2" fill="#161b22"><title>2025-07-27: 0 contributions</title></rect><rect x="54" y="82" width="11" height="11" rx="2" ry="2" fill="#161b22"><title>2025-07-28: 0 contributions</title></rect><rect x="54" y="96" width="11" height="11" rx="2" ry="2" fill="#161b22"><title>2025-07-29: 0 contributions</title></rect><rect x="54" y="110" width="11" height="11" rx="2" ry="2" fill="#161b22"><title>2025-07-30: 0 contributions</title></rect><rect x="54" y="124" width="11" height="11" rx="2" ry="2" fill="#161b22"><title>2025-07-31: 0 contributions</title></rect><rect x="54" y="138" width="11" height="11" rx="2" ry="2" fill="#161b22"><title>2025-08-01: 0 contributions</title></rect><rect x="54" y="152" width="11" height="11" rx="2" ry="2" fill="#161b22"><title>2025-08-02: 0 contributions</title></rect><rect x="68" y="68" width="11" height="11" rx="2" ry="2" fill="#161b22"><title>2025-08-03: 0 contributions</title></rect><rect x="68" y="82" width="11" height="11" rx="2" ry="2" fill="#161b22"><title>2025-08-04: 0 contributions</title></rect><rect x="68" y="96" width="11" height="11" rx="2" ry="2" fill="#161b22"><title>2025-08-05: 0 contributions</title></rect><rect x="68" y="110" width="11" height="11" rx="2" ry="2" fill="#161b22"><title>2025-08-06: 0 contributions</title></rect><rect x="68" y="124" width="11" height="11" rx="2" ry="2" fill="#161b22"><title>2025-08-07: 0 contributions</title></rect><rect x="68" y="138" width="11" height="11" rx="2" ry="2" fill="#161b22"><title>2025-08-08: 0 contributions</title></rect><rect x="68" y="152" width="11" height="11" rx="2" ry="2" fill="#161b22"><title>2025-08-09: 0 contributions</title></rect><rect x="82" y="68" width="11" height="11" rx="2" ry="2" fill="#161b22"><title>2025-08-10: 0 contributions</title></rect><rect x="82" y="82" width="11" height="11" rx="2" ry="2" fill="#161b22"><title>2025-08-11: 0 contributions</title></rect><rect x="82" y="96" width="11" height="11" rx="2" ry="2" fill="#161b22"><title>2025-08-12: 0 contributions</title></rect><rect x="82" y="110" width="11" height="11" rx="2" ry="2" fill="#161b22"><title>2025-08-13: 0 contributions</title></rect><rect x="82" y="124" width="11" height="11" rx="2" ry="2" fill="#161b22"><title>2025-08-14: 0 contributions</title></rect><rect x="82" y="138" width="11" height="11" rx="2" ry="2" fill="#161b22"><title>2025-08-15: 0 contributions</title></rect><rect x="82" y="152" width="11" height="11" rx="2" ry="2" fill="#161b22"><title>2025-08-16: 0 contributions</title></rect><rect x="96" y="68" width="11" height="11" rx="2" ry="2" fill="#161b22"><title>2025-08-17: 0 contributions</title></rect><rect x="96" y="82" width="11" height="11" rx="2" ry="2" fill="#161b22"><title>2025-08-18: 0 contributions</title></rect><rect x="96" y="96" width="11" height="11" rx="2" ry="2" fill="#161b22"><title>2025-08-19: 0 contributions</title></rect><rect x="96" y="110" width="11" height="11" rx="2" ry="2" fill="#161b22"><title>2025-08-20: 0 contributions</title></rect><rect x="96" y="124" width="11" height="11" rx="2" ry="2" fill="#161b22"><title>2025-08-21: 0 contributions</title></rect><rect x="96" y="138" width="11" height="11" rx="2" ry="2" fill="#161b22"><title>2025-08-22: 0 contributions</title></rect><rect x="96" y="152" width="11" height="11" rx="2" ry="2" fill="#161b22"><title>2025-08-23: 0 contributions</title></rect><rect x="110" y="68" width="11" height="11" rx="2" ry="2" fill="#161b22"><title>2025-08-24: 0 contributions</title></rect><rect x="110" y="82" width="11" height="11" rx="2" ry="2" fill="#161b22"><title>2025-08-25: 0 contributions</title></rect><rect x="110" y="96" width="11" height="11" rx="2" ry="2" fill="#161b22"><title>2025-08-26: 0 contributions</title></rect><rect x="110" y="110" width="11" height="11" rx="2" ry="2" fill="#161b22"><title>2025-08-27: 0 contributions</title></rect><rect x="110" y="124" width="11" height="11" rx="2" ry="2" fill="#161b22"><title>2025-08-28: 0 contributions</title></rect><rect x="110" y="138" width="11" height="11" rx="2" ry="2" fill="#161b22"><title>2025-08-29: 0 contributions</title></rect><rect x="110" y="152" width="11" height="11" rx="2" ry="2" fill="#161b22"><title>2025-08-30: 0 contributions</title></rect><rect x="124" y="68" width="11" height="11" rx="2" ry="2" fill="#161b22"><title>2025-08-31: 0 contributions</title></rect><rect x="124" y="82" width="11" height="11" rx="2" ry="2" fill="#161b22"><title>2025-09-01: 0 contributions</title></rect><rect x="124" y="96" width="11" height="11" rx="2" ry="2" fill="#161b22"><title>2025-09-02: 0 contributions</title></rect><rect x="124" y="110" width="11" height="11" rx="2" ry="2" fill="#161b22"><title>2025-09-03: 0 contributions</title></rect><rect x="124" y="124" width="11" height="11" rx="2" ry="2" fill="#161b22"><title>2025-09-04: 0 contributions</title></rect><rect x="124" y="138" width="11" height="11" rx="2" ry="2" fill="#161b22"><title>2025-09-05: 0 contributions</title></rect><rect x="124" y="152" width="11" height="11" rx="2" ry="2" fill="#161b22"><title>2025-09-06: 0 contributions</title></rect><rect x="138" y="68" width="11" height="11" rx="2" ry="2" fill="#161b22"><title>2025-09-07: 0 contributions</title></rect><rect x="138" y="82" width="11" height="11" rx="2" ry="2" fill="#161b22"><title>2025-09-08: 0 contributions</title></rect><rect x="138" y="96" width="11" height="11" rx="2" ry="2" fill="#161b22"><title>2025-09-09: 0 contributions</title></rect><rect x="138" y="110" width="11" height="11" rx="2" ry="2" fill="#161b22"><title>2025-09-10: 0 contributions</title></rect><rect x="138" y="124" width="11" height="11" rx="2" ry="2" fill="#161b22"><title>2025-09-11: 0 contributions</title></rect><rect x="138" y="138" width="11" height="11" rx="2" ry="2" fill="#161b22"><title>2025-09-12: 0 contributions</title></rect><rect x="138" y="152" width="11" height="11" rx="2" ry="2" fill="#161b22"><title>2025-09-13: 0 contributions</title></rect><rect x="152" y="68" width="11" height="11" rx="2" ry="2" fill="#161b22"><title>2025-09-14: 0 contributions</title></rect><rect x="152" y="82" width="11" height="11" rx="2" ry="2" fill="#161b22"><title>2025-09-15: 0 contributions</title></rect><rect x="152" y="96" width="11" height="11" rx="2" ry="2" fill="#161b22"><title>2025-09-16: 0 contributions</title></rect><rect x="152" y="110" width="11" height="11" rx="2" ry="2" fill="#161b22"><title>2025-09-17: 0 contributions</title></rect><rect x="152" y="124" width="11" height="11" rx="2" ry="2" fill="#161b22"><title>2025-09-18: 0 contributions</title></rect><rect x="152" y="138" width="11" height="11" rx="2" ry="2" fill="#161b22"><title>2025-09-19: 0 contributions</title></rect><rect x="152" y="152" width="11" height="11" rx="2" ry="2" fill="#161b22"><title>2025-09-20: 0 contributions</title></rect><rect x="166" y="68" width="11" height="11" rx="2" ry="2" fill="#161b22"><title>2025-09-21: 0 contributions</title></rect><rect x="166" y="82" width="11" height="11" rx="2" ry="2" fill="#161b22"><title>2025-09-22: 0 contributions</title></rect><rect x="166" y="96" width="11" height="11" rx="2" ry="2" fill="#161b22"><title>2025-09-23: 0 contributions</title></rect><rect x="166" y="110" width="11" height="11" rx="2" ry="2" fill="#161b22"><title>2025-09-24: 0 contributions</title></rect><rect x="166" y="124" width="11" height="11" rx="2" ry="2" fill="#161b22"><title>2025-09-25: 0 contributions</title></rect><rect x="166" y="138" width="11" height="11" rx="2" ry="2" fill="#161b22"><title>2025-09-26: 0 contributions</title></rect><rect x="166" y="152" width="11" height="11" rx="2" ry="2" fill="#161b22"><title>2025-09-27: 0 contributions</title></rect><rect x="180" y="68" width="11" height="11" rx="2" ry="2" fill="#161b22"><title>2025-09-28: 0 contributions</title></rect><rect x="180" y="82" width="11" height="11" rx="2" ry="2" fill="#161b22"><title>2025-09-29: 0 contributions</title></rect><rect x="180" y="96" width="11" height="11" rx="2" ry="2" fill="#161b22"><title>2025-09-30: 0 contributions</title></rect><rect x="180" y="110" width="11" height="11" rx="2" ry="2" fill="#161b22"><title>2025-10-01: 0 contributions</title></rect><rect x="180" y="124" width="11" height="11" rx="2" ry="2" fill="#161b22"><title>2025-10-02: 0 contributions</title></rect><rect x="180" y="138" width="11" height="11" rx="2" ry="2" fill="#161b22"><title>2025-10-03: 0 contributions</title></rect><rect x="180" y="152" width="11" height="11" rx="2" ry="2" fill="#161b22"><title>2025-10-04: 0 contributions</title></rect><rect x="194" y="68" width="11" height="11" rx="2" ry="2" fill="#161b22"><title>2025-10-05: 0 contributions</title></rect><rect x="194" y="82" width="11" height="11" rx="2" ry="2" fill="#161b22"><title>2025-10-06: 0 contributions</title></rect><rect x="194" y="96" width="11" height="11" rx="2" ry="2" fill="#161b22"><title>2025-10-07: 0 contributions</title></rect><rect x="194" y="110" width="11" height="11" rx="2" ry="2" fill="#161b22"><title>2025-10-08: 0 contributions</title></rect><rect x="194" y="124" width="11" height="11" rx="2" ry="2" fill="#161b22"><title>2025-10-09: 0 contributions</title></rect><rect x="194" y="138" width="11" height="11" rx="2" ry="2" fill="#161b22"><title>2025-10-10: 0 contributions</title></rect><rect x="194" y="152" width="11" height="11" rx="2" ry="2" fill="#161b22"><title>2025-10-11: 0 contributions</title></rect><rect x="208" y="68" width="11" height="11" rx="2" ry="2" fill="#161b22"><title>2025-10-12: 0 contributions</title></rect><rect x="208" y="82" width="11" height="11" rx="2" ry="2" fill="#161b22"><title>2025-10-13: 0 contributions</title></rect><rect x="208" y="96" width="11" height="11" rx="2" ry="2" fill="#161b22"><title>2025-10-14: 0 contributions</title></rect><rect x="208" y="110" width="11" height="11" rx="2" ry="2" fill="#161b22"><title>2025-10-15: 0 contributions</title></rect><rect x="208" y="124" width="11" height="11" rx="2" ry="2" fill="#161b22"><title>2025-10-16: 0 contributions</title></rect><rect x="208" y="138" width="11" height="11" rx="2" ry="2" fill="#161b22"><title>2025-10-17: 0 contributions</title></rect><rect x="208" y="152" width="11" height="11" rx="2" ry="2" fill="#161b22"><title>2025-10-18: 0 contributions</title></rect><rect x="222" y="68" width="11" height="11" rx="2" ry="2" fill="#161b22"><title>2025-10-19: 0 contributions</title></rect><rect x="222" y="82" width="11" height="11" rx="2" ry="2" fill="#161b22"><title>2025-10-20: 0 contributions</title></rect><rect x="222" y="96" width="11" height="11" rx="2" ry="2" fill="#161b22"><title>2025-10-21: 0 contributions</title></rect><rect x="222" y="110" width="11" height="11" rx="2" ry="2" fill="#161b22"><title>2025-10-22: 0 contributions</title></rect><rect x="222" y="124" width="11" height="11" rx="2" ry="2" fill="#161b22"><title>2025-10-23: 0 contributions</title></rect><rect x="222" y="138" width="11" height="11" rx="2" ry="2" fill="#161b22"><title>2025-10-24: 0 contributions</title></rect><rect x="222" y="152" width="11" height="11" rx="2" ry="2" fill="#161b22"><title>2025-10-25: 0 contributions</title></rect><rect x="236" y="68" width="11" height="11" rx="2" ry="2" fill="#161b22"><title>2025-10-26: 0 contributions</title></rect><rect x="236" y="82" width="11" height="11" rx="2" ry="2" fill="#161b22"><title>2025-10-27: 0 contributions</title></rect><rect x="236" y="96" width="11" height="11" rx="2" ry="2" fill="#161b22"><title>2025-10-28: 0 contributions</title></rect><rect x="236" y="110" width="11" height="11" rx="2" ry="2" fill="#161b22"><title>2025-10-29: 0 contributions</title></rect><rect x="236" y="124" width="11" height="11" rx="2" ry="2" fill="#161b22"><title>2025-10-30: 0 contributions</title></rect><rect x="236" y="138" width="11" height="11" rx="2" ry="2" fill="#161b22"><title>2025-10-31: 0 contributions</title></rect><rect x="236" y="152" width="11" height="11" rx="2" ry="2" fill="#161b22"><title>2025-11-01: 0 contributions</title></rect><rect x="250" y="68" width="11" height="11" rx="2" ry="2" fill="#161b22"><title>2025-11-02: 0 contributions</title></rect><rect x="250" y="82" width="11" height="11" rx="2" ry="2" fill="#006d32"><title>2025-11-03: 5 contributions</title></rect><rect x="250" y="96" width="11" height="11" rx="2" ry="2" fill="#161b22"><title>2025-11-04: 0 contributions</title></rect><rect x="250" y="110" width="11" height="11" rx="2" ry="2" fill="#161b22"><title>2025-11-05: 0 contributions</title></rect><rect x="250" y="124" width="11" height="11" rx="2" ry="2" fill="#161b22"><title>2025-11-06: 0 contributions</title></rect><rect x="250" y="138" width="11" height="11" rx="2" ry="2" fill="#161b22"><title>2025-11-07: 0 contributions</title></rect><rect x="250" y="152" width="11" height="11" rx="2" ry="2" fill="#161b22"><title>2025-11-08: 0 contributions</title></rect><rect x="264" y="68" width="11" height="11" rx="2" ry="2" fill="#161b22"><title>2025-11-09: 0 contributions</title></rect><rect x="264" y="82" width="11" height="11" rx="2" ry="2" fill="#161b22"><title>2025-11-10: 0 contributions</title></rect><rect x="264" y="96" width="11" height="11" rx="2" ry="2" fill="#161b22"><title>2025-11-11: 0 contributions</title></rect><rect x="264" y="110" width="11" height="11" rx="2" ry="2" fill="#161b22"><title>2025-11-12: 0 contributions</title></rect><rect x="264" y="124" width="11" height="11" rx="2" ry="2" fill="#161b22"><title>2025-11-13: 0 contributions</title></rect><rect x="264" y="138" width="11" height="11" rx="2" ry="2" fill="#161b22"><title>2025-11-14: 0 contributions</title></rect><rect x="264" y="152" width="11" height="11" rx="2" ry="2" fill="#161b22"><title>2025-11-15: 0 contributions</title></rect><rect x="278" y="68" width="11" height="11" rx="2" ry="2" fill="#161b22"><title>2025-11-16: 0 contributions</title></rect><rect x="278" y="82" width="11" height="11" rx="2" ry="2" fill="#161b22"><title>2025-11-17: 0 contributions</title></rect><rect x="278" y="96" width="11" height="11" rx="2" ry="2" fill="#161b22"><title>2025-11-18: 0 contributions</title></rect><rect x="278" y="110" width="11" height="11" rx="2" ry="2" fill="#161b22"><title>2025-11-19: 0 contributions</title></rect><rect x="278" y="124" width="11" height="11" rx="2" ry="2" fill="#161b22"><title>2025-11-20: 0 contributions</title></rect><rect x="278" y="138" width="11" height="11" rx="2" ry="2" fill="#161b22"><title>2025-11-21: 0 contributions</title></rect><rect x="278" y="152" width="11" height="11" rx="2" ry="2" fill="#161b22"><title>2025-11-22: 0 contributions</title></rect><rect x="292" y="68" width="11" height="11" rx="2" ry="2" fill="#161b22"><title>2025-11-23: 0 contributions</title></rect><rect x="292" y="82" width="11" height="11" rx="2" ry="2" fill="#161b22"><title>2025-11-24: 0 contributions</title></rect><rect x="292" y="96" width="11" height="11" rx="2" ry="2" fill="#161b22"><title>2025-11-25: 0 contributions</title></rect><rect x="292" y="110" width="11" height="11" rx="2" ry="2" fill="#161b22"><title>2025-11-26: 0 contributions</title></rect><rect x="292" y="124" width="11" height="11" rx="2" ry="2" fill="#161b22"><title>2025-11-27: 0 contributions</title></rect><rect x="292" y="138" width="11" height="11" rx="2" ry="2" fill="#161b22"><title>2025-11-28: 0 contributions</title></rect><rect x="292" y="152" width="11" height="11" rx="2" ry="2" fill="#161b22"><title>2025-11-29: 0 contributions</title></rect><rect x="306" y="68" width="11" height="11" rx="2" ry="2" fill="#161b22"><title>2025-11-30: 0 contributions</title></rect><rect x="306" y="82" width="11" height="11" rx="2" ry="2" fill="#161b22"><title>2025-12-01: 0 contributions</title></rect><rect x="306" y="96" width="11" height="11" rx="2" ry="2" fill="#161b22"><title>2025-12-02: 0 contributions</title></rect><rect x="306" y="110" width="11" height="11" rx="2" ry="2" fill="#161b22"><title>2025-12-03: 0 contributions</title></rect><rect x="306" y="124" width="11" height="11" rx="2" ry="2" fill="#161b22"><title>2025-12-04: 0 contributions</title></rect><rect x="306" y="138" width="11" height="11" rx="2" ry="2" fill="#161b22"><title>2025-12-05: 0 contributions</title></rect><rect x="306" y="152" width="11" height="11" rx="2" ry="2" fill="#161b22"><title>2025-12-06: 0 contributions</title></rect><rect x="320" y="68" width="11" height="11" rx="2" ry="2" fill="#161b22"><title>2025-12-07: 0 contributions</title></rect><rect x="320" y="82" width="11" height="11" rx="2" ry="2" fill="#161b22"><title>2025-12-08: 0 contributions</title></rect><rect x="320" y="96" width="11" height="11" rx="2" ry="2" fill="#161b22"><title>2025-12-09: 0 contributions</title></rect><rect x="320" y="110" width="11" height="11" rx="2" ry="2" fill="#161b22"><title>2025-12-10: 0 contributions</title></rect><rect x="320" y="124" width="11" height="11" rx="2" ry="2" fill="#161b22"><title>2025-12-11: 0 contributions</title></rect><rect x="320" y="138" width="11" height="11" rx="2" ry="2" fill="#161b22"><title>2025-12-12: 0 contributions</title></rect><rect x="320" y="152" width="11" height="11" rx="2" ry="2" fill="#161b22"><title>2025-12-13: 0 contributions</title></rect><rect x="334" y="68" width="11" height="11" rx="2" ry="2" fill="#161b22"><title>2025-12-14: 0 contributions</title></rect><rect x="334" y="82" width="11" height="11" rx="2" ry="2" fill="#161b22"><title>2025-12-15: 0 contributions</title></rect><rect x="334" y="96" width="11" height="11" rx="2" ry="2" fill="#161b22"><title>2025-12-16: 0 contributions</title></rect><rect x="334" y="110" width="11" height="11" rx="2" ry="2" fill="#0e4429"><title>2025-12-17: 2 contributions</title></rect><rect x="334" y="124" width="11" height="11" rx="2" ry="2" fill="#006d32"><title>2025-12-18: 4 contributions</title></rect><rect x="334" y="138" width="11" height="11" rx="2" ry="2" fill="#0e4429"><title>2025-12-19: 2 contributions</title></rect><rect x="334" y="152" width="11" height="11" rx="2" ry="2" fill="#006d32"><title>2025-12-20: 3 contributions</title></rect><rect x="348" y="68" width="11" height="11" rx="2" ry="2" fill="#26a641"><title>2025-12-21: 6 contributions</title></rect><rect x="348" y="82" width="11" height="11" rx="2" ry="2" fill="#161b22"><title>2025-12-22: 0 contributions</title></rect><rect x="348" y="96" width="11" height="11" rx="2" ry="2" fill="#006d32"><title>2025-12-23: 4 contributions</title></rect><rect x="348" y="110" width="11" height="11" rx="2" ry="2" fill="#39d353"><title>2025-12-24: 11 contributions</title></rect><rect x="348" y="124" width="11" height="11" rx="2" ry="2" fill="#006d32"><title>2025-12-25: 3 contributions</title></rect><rect x="348" y="138" width="11" height="11" rx="2" ry="2" fill="#161b22"><title>2025-12-26: 0 contributions</title></rect><rect x="348" y="152" width="11" height="11" rx="2" ry="2" fill="#161b22"><title>2025-12-27: 0 contributions</title></rect><rect x="362" y="68" width="11" height="11" rx="2" ry="2" fill="#006d32"><title>2025-12-28: 4 contributions</title></rect><rect x="362" y="82" width="11" height="11" rx="2" ry="2" fill="#006d32"><title>2025-12-29: 4 contributions</title></rect><rect x="362" y="96" width="11" height="11" rx="2" ry="2" fill="#161b22"><title>2025-12-30: 0 contributions</title></rect><rect x="362" y="110" width="11" height="11" rx="2" ry="2" fill="#161b22"><title>2025-12-31: 0 contributions</title></rect><rect x="362" y="124" width="11" height="11" rx="2" ry="2" fill="#26a641"><title>2026-01-01: 6 contributions</title></rect><rect x="362" y="138" width="11" height="11" rx="2" ry="2" fill="#161b22"><title>2026-01-02: 0 contributions</title></rect><rect x="362" y="152" width="11" height="11" rx="2" ry="2" fill="#161b22"><title>2026-01-03: 0 contributions</title></rect><rect x="376" y="68" width="11" height="11" rx="2" ry="2" fill="#161b22"><title>2026-01-04: 0 contributions</title></rect><rect x="376" y="82" width="11" height="11" rx="2" ry="2" fill="#26a641"><title>2026-01-05: 6 contributions</title></rect><rect x="376" y="96" width="11" height="11" rx="2" ry="2" fill="#0e4429"><title>2026-01-06: 1 contributions</title></rect><rect x="376" y="110" width="11" height="11" rx="2" ry="2" fill="#26a641"><title>2026-01-07: 8 contributions</title></rect><rect x="376" y="124" width="11" height="11" rx="2" ry="2" fill="#39d353"><title>2026-01-08: 13 contributions</title></rect><rect x="376" y="138" width="11" height="11" rx="2" ry="2" fill="#26a641"><title>2026-01-09: 8 contributions</title></rect><rect x="376" y="152" width="11" height="11" rx="2" ry="2" fill="#006d32"><title>2026-01-10: 5 contributions</title></rect><rect x="390" y="68" width="11" height="11" rx="2" ry="2" fill="#006d32"><title>2026-01-11: 5 contributions</title></rect><rect x="390" y="82" width="11" height="11" rx="2" ry="2" fill="#161b22"><title>2026-01-12: 0 contributions</title></rect><rect x="390" y="96" width="11" height="11" rx="2" ry="2" fill="#161b22"><title>2026-01-13: 0 contributions</title></rect><rect x="390" y="110" width="11" height="11" rx="2" ry="2" fill="#26a641"><title>2026-01-14: 8 contributions</title></rect><rect x="390" y="124" width="11" height="11" rx="2" ry="2" fill="#006d32"><title>2026-01-15: 4 contributions</title></rect><rect x="390" y="138" width="11" height="11" rx="2" ry="2" fill="#161b22"><title>2026-01-16: 0 contributions</title></rect><rect x="390" y="152" width="11" height="11" rx="2" ry="2" fill="#39d353"><title>2026-01-17: 24 contributions</title></rect><rect x="404" y="68" width="11" height="11" rx="2" ry="2" fill="#39d353"><title>2026-01-18: 16 contributions</title></rect><rect x="404" y="82" width="11" height="11" rx="2" ry="2" fill="#26a641"><title>2026-01-19: 7 contributions</title></rect><rect x="404" y="96" width="11" height="11" rx="2" ry="2" fill="#161b22"><title>2026-01-20: 0 contributions</title></rect><rect x="404" y="110" width="11" height="11" rx="2" ry="2" fill="#161b22"><title>2026-01-21: 0 contributions</title></rect><rect x="404" y="124" width="11" height="11" rx="2" ry="2" fill="#26a641"><title>2026-01-22: 8 contributions</title></rect><rect x="404" y="138" width="11" height="11" rx="2" ry="2" fill="#0e4429"><title>2026-01-23: 1 contributions</title></rect><rect x="404" y="152" width="11" height="11" rx="2" ry="2" fill="#006d32"><title>2026-01-24: 4 contributions</title></rect><rect x="418" y="68" width="11" height="11" rx="2" ry="2" fill="#39d353"><title>2026-01-25: 27 contributions</title></rect><rect x="418" y="82" width="11" height="11" rx="2" ry="2" fill="#39d353"><title>2026-01-26: 11 contributions</title></rect><rect x="418" y="96" width="11" height="11" rx="2" ry="2" fill="#0e4429"><title>2026-01-27: 2 contributions</title></rect><rect x="418" y="110" width="11" height="11" rx="2" ry="2" fill="#161b22"><title>2026-01-28: 0 contributions</title></rect><rect x="418" y="124" width="11" height="11" rx="2" ry="2" fill="#39d353"><title>2026-01-29: 10 contributions</title></rect><rect x="418" y="138" width="11" height="11" rx="2" ry="2" fill="#161b22"><title>2026-01-30: 0 contributions</title></rect><rect x="418" y="152" width="11" height="11" rx="2" ry="2" fill="#006d32"><title>2026-01-31: 5 contributions</title></rect><rect x="432" y="68" width="11" height="11" rx="2" ry="2" fill="#006d32"><title>2026-02-01: 3 contributions</title></rect><rect x="432" y="82" width="11" height="11" rx="2" ry="2" fill="#006d32"><title>2026-02-02: 5 contributions</title></rect><rect x="432" y="96" width="11" height="11" rx="2" ry="2" fill="#0e4429"><title>2026-02-03: 2 contributions</title></rect><rect x="432" y="110" width="11" height="11" rx="2" ry="2" fill="#161b22"><title>2026-02-04: 0 contributions</title></rect><rect x="432" y="124" width="11" height="11" rx="2" ry="2" fill="#006d32"><title>2026-02-05: 4 contributions</title></rect><rect x="432" y="138" width="11" height="11" rx="2" ry="2" fill="#161b22"><title>2026-02-06: 0 contributions</title></rect><rect x="432" y="152" width="11" height="11" rx="2" ry="2" fill="#26a641"><title>2026-02-07: 6 contributions</title></rect><rect x="446" y="68" width="11" height="11" rx="2" ry="2" fill="#006d32"><title>2026-02-08: 4 contributions</title></rect><rect x="446" y="82" width="11" height="11" rx="2" ry="2" fill="#0e4429"><title>2026-02-09: 2 contributions</title></rect><rect x="446" y="96" width="11" height="11" rx="2" ry="2" fill="#0e4429"><title>2026-02-10: 1 contributions</title></rect><rect x="446" y="110" width="11" height="11" rx="2" ry="2" fill="#161b22"><title>2026-02-11: 0 contributions</title></rect><rect x="446" y="124" width="11" height="11" rx="2" ry="2" fill="#006d32"><title>2026-02-12: 5 contributions</title></rect><rect x="446" y="138" width="11" height="11" rx="2" ry="2" fill="#161b22"><title>2026-02-13: 0 contributions</title></rect><rect x="446" y="152" width="11" height="11" rx="2" ry="2" fill="#161b22"><title>2026-02-14: 0 contributions</title></rect><rect x="460" y="68" width="11" height="11" rx="2" ry="2" fill="#006d32"><title>2026-02-15: 3 contributions</title></rect><rect x="460" y="82" width="11" height="11" rx="2" ry="2" fill="#0e4429"><title>2026-02-16: 1 contributions</title></rect><rect x="460" y="96" width="11" height="11" rx="2" ry="2" fill="#161b22"><title>2026-02-17: 0 contributions</title></rect><rect x="460" y="110" width="11" height="11" rx="2" ry="2" fill="#0e4429"><title>2026-02-18: 1 contributions</title></rect><rect x="460" y="124" width="11" height="11" rx="2" ry="2" fill="#161b22"><title>2026-02-19: 0 contributions</title></rect><rect x="460" y="138" width="11" height="11" rx="2" ry="2" fill="#161b22"><title>2026-02-20: 0 contributions</title></rect><rect x="460" y="152" width="11" height="11" rx="2" ry="2" fill="#26a641"><title>2026-02-21: 6 contributions</title></rect><rect x="474" y="68" width="11" height="11" rx="2" ry="2" fill="#161b22"><title>2026-02-22: 0 contributions</title></rect><rect x="474" y="82" width="11" height="11" rx="2" ry="2" fill="#26a641"><title>2026-02-23: 7 contributions</title></rect><rect x="474" y="96" width="11" height="11" rx="2" ry="2" fill="#161b22"><title>2026-02-24: 0 contributions</title></rect><rect x="474" y="110" width="11" height="11" rx="2" ry="2" fill="#161b22"><title>2026-02-25: 0 contributions</title></rect><rect x="474" y="124" width="11" height="11" rx="2" ry="2" fill="#006d32"><title>2026-02-26: 5 contributions</title></rect><rect x="474" y="138" width="11" height="11" rx="2" ry="2" fill="#161b22"><title>2026-02-27: 0 contributions</title></rect><rect x="474" y="152" width="11" height="11" rx="2" ry="2" fill="#0e4429"><title>2026-02-28: 1 contributions</title></rect><rect x="488" y="68" width="11" height="11" rx="2" ry="2" fill="#0e4429"><title>2026-03-01: 2 contributions</title></rect><rect x="488" y="82" width="11" height="11" rx="2" ry="2" fill="#161b22"><title>2026-03-02: 0 contributions</title></rect><rect x="488" y="96" width="11" height="11" rx="2" ry="2" fill="#006d32"><title>2026-03-03: 3 contributions</title></rect><rect x="488" y="110" width="11" height="11" rx="2" ry="2" fill="#006d32"><title>2026-03-04: 3 contributions</title></rect><rect x="488" y="124" width="11" height="11" rx="2" ry="2" fill="#0e4429"><title>2026-03-05: 1 contributions</title></rect><rect x="488" y="138" width="11" height="11" rx="2" ry="2" fill="#006d32"><title>2026-03-06: 3 contributions</title></rect><rect x="488" y="152" width="11" height="11" rx="2" ry="2" fill="#161b22"><title>2026-03-07: 0 contributions</title></rect><rect x="502" y="68" width="11" height="11" rx="2" ry="2" fill="#161b22"><title>2026-03-08: 0 contributions</title></rect><rect x="502" y="82" width="11" height="11" rx="2" ry="2" fill="#0e4429"><title>2026-03-09: 2 contributions</title></rect><rect x="502" y="96" width="11" height="11" rx="2" ry="2" fill="#006d32"><title>2026-03-10: 5 contributions</title></rect><rect x="502" y="110" width="11" height="11" rx="2" ry="2" fill="#006d32"><title>2026-03-11: 3 contributions</title></rect><rect x="502" y="124" width="11" height="11" rx="2" ry="2" fill="#161b22"><title>2026-03-12: 0 contributions</title></rect><rect x="502" y="138" width="11" height="11" rx="2" ry="2" fill="#161b22"><title>2026-03-13: 0 contributions</title></rect><rect x="502" y="152" width="11" height="11" rx="2" ry="2" fill="#161b22"><title>2026-03-14: 0 contributions</title></rect><rect x="516" y="68" width="11" height="11" rx="2" ry="2" fill="#161b22"><title>2026-03-15: 0 contributions</title></rect><rect x="516" y="82" width="11" height="11" rx="2" ry="2" fill="#006d32"><title>2026-03-16: 4 contributions</title></rect><rect x="516" y="96" width="11" height="11" rx="2" ry="2" fill="#0e4429"><title>2026-03-17: 2 contributions</title></rect><rect x="516" y="110" width="11" height="11" rx="2" ry="2" fill="#161b22"><title>2026-03-18: 0 contributions</title></rect><rect x="516" y="124" width="11" height="11" rx="2" ry="2" fill="#161b22"><title>2026-03-19: 0 contributions</title></rect><rect x="516" y="138" width="11" height="11" rx="2" ry="2" fill="#161b22"><title>2026-03-20: 0 contributions</title></rect><rect x="516" y="152" width="11" height="11" rx="2" ry="2" fill="#006d32"><title>2026-03-21: 4 contributions</title></rect><rect x="530" y="68" width="11" height="11" rx="2" ry="2" fill="#161b22"><title>2026-03-22: 0 contributions</title></rect><rect x="530" y="82" width="11" height="11" rx="2" ry="2" fill="#26a641"><title>2026-03-23: 8 contributions</title></rect><rect x="530" y="96" width="11" height="11" rx="2" ry="2" fill="#0e4429"><title>2026-03-24: 2 contributions</title></rect><rect x="530" y="110" width="11" height="11" rx="2" ry="2" fill="#0e4429"><title>2026-03-25: 2 contributions</title></rect><rect x="530" y="124" width="11" height="11" rx="2" ry="2" fill="#161b22"><title>2026-03-26: 0 contributions</title></rect><rect x="530" y="138" width="11" height="11" rx="2" ry="2" fill="#006d32"><title>2026-03-27: 4 contributions</title></rect><rect x="530" y="152" width="11" height="11" rx="2" ry="2" fill="#161b22"><title>2026-03-28: 0 contributions</title></rect><rect x="544" y="68" width="11" height="11" rx="2" ry="2" fill="#006d32"><title>2026-03-29: 5 contributions</title></rect><rect x="544" y="82" width="11" height="11" rx="2" ry="2" fill="#161b22"><title>2026-03-30: 0 contributions</title></rect><rect x="544" y="96" width="11" height="11" rx="2" ry="2" fill="#006d32"><title>2026-03-31: 3 contributions</title></rect><rect x="544" y="110" width="11" height="11" rx="2" ry="2" fill="#0e4429"><title>2026-04-01: 2 contributions</title></rect><rect x="544" y="124" width="11" height="11" rx="2" ry="2" fill="#0e4429"><title>2026-04-02: 1 contributions</title></rect><rect x="544" y="138" width="11" height="11" rx="2" ry="2" fill="#161b22"><title>2026-04-03: 0 contributions</title></rect><rect x="544" y="152" width="11" height="11" rx="2" ry="2" fill="#161b22"><title>2026-04-04: 0 contributions</title></rect><rect x="558" y="68" width="11" height="11" rx="2" ry="2" fill="#006d32"><title>2026-04-05: 4 contributions</title></rect><rect x="558" y="82" width="11" height="11" rx="2" ry="2" fill="#0e4429"><title>2026-04-06: 2 contributions</title></rect><rect x="558" y="96" width="11" height="11" rx="2" ry="2" fill="#006d32"><title>2026-04-07: 3 contributions</title></rect><rect x="558" y="110" width="11" height="11" rx="2" ry="2" fill="#0e4429"><title>2026-04-08: 1 contributions</title></rect><rect x="558" y="124" width="11" height="11" rx="2" ry="2" fill="#006d32"><title>2026-04-09: 4 contributions</title></rect><rect x="558" y="138" width="11" height="11" rx="2" ry="2" fill="#0e4429"><title>2026-04-10: 2 contributions</title></rect><rect x="558" y="152" width="11" height="11" rx="2" ry="2" fill="#161b22"><title>2026-04-11: 0 contributions</title></rect><rect x="572" y="68" width="11" height="11" rx="2" ry="2" fill="#39d353"><title>2026-04-12: 10 contributions</title></rect><rect x="572" y="82" width="11" height="11" rx="2" ry="2" fill="#006d32"><title>2026-04-13: 5 contributions</title></rect><rect x="572" y="96" width="11" height="11" rx="2" ry="2" fill="#006d32"><title>2026-04-14: 3 contributions</title></rect><rect x="572" y="110" width="11" height="11" rx="2" ry="2" fill="#161b22"><title>2026-04-15: 0 contributions</title></rect><rect x="572" y="124" width="11" height="11" rx="2" ry="2" fill="#0e4429"><title>2026-04-16: 2 contributions</title></rect><rect x="572" y="138" width="11" height="11" rx="2" ry="2" fill="#161b22"><title>2026-04-17: 0 contributions</title></rect><rect x="572" y="152" width="11" height="11" rx="2" ry="2" fill="#006d32"><title>2026-04-18: 3 contributions</title></rect><rect x="586" y="68" width="11" height="11" rx="2" ry="2" fill="#0e4429"><title>2026-04-19: 2 contributions</title></rect><rect x="586" y="82" width="11" height="11" rx="2" ry="2" fill="#161b22"><title>2026-04-20: 0 contributions</title></rect><rect x="586" y="96" width="11" height="11" rx="2" ry="2" fill="#006d32"><title>2026-04-21: 4 contributions</title></rect><rect x="586" y="110" width="11" height="11" rx="2" ry="2" fill="#0e4429"><title>2026-04-22: 1 contributions</title></rect><rect x="586" y="124" width="11" height="11" rx="2" ry="2" fill="#161b22"><title>2026-04-23: 0 contributions</title></rect><rect x="586" y="138" width="11" height="11" rx="2" ry="2" fill="#161b22"><title>2026-04-24: 0 contributions</title></rect><rect x="586" y="152" width="11" height="11" rx="2" ry="2" fill="#0e4429"><title>2026-04-25: 1 contributions</title></rect><rect x="600" y="68" width="11" height="11" rx="2" ry="2" fill="#161b22"><title>2026-04-26: 0 contributions</title></rect><rect x="600" y="82" width="11" height="11" rx="2" ry="2" fill="#0e4429"><title>2026-04-27: 2 contributions</title></rect><rect x="600" y="96" width="11" height="11" rx="2" ry="2" fill="#161b22"><title>2026-04-28: 0 contributions</title></rect><rect x="600" y="110" width="11" height="11" rx="2" ry="2" fill="#0e4429"><title>2026-04-29: 1 contributions</title></rect><rect x="600" y="124" width="11" height="11" rx="2" ry="2" fill="#161b22"><title>2026-04-30: 0 contributions</title></rect><rect x="600" y="138" width="11" height="11" rx="2" ry="2" fill="#161b22"><title>2026-05-01: 0 contributions</title></rect><rect x="600" y="152" width="11" height="11" rx="2" ry="2" fill="#0e4429"><title>2026-05-02: 1 contributions</title></rect><rect x="614" y="68" width="11" height="11" rx="2" ry="2" fill="#161b22"><title>2026-05-03: 0 contributions</title></rect><rect x="614" y="82" width="11" height="11" rx="2" ry="2" fill="#161b22"><title>2026-05-04: 0 contributions</title></rect><rect x="614" y="96" width="11" height="11" rx="2" ry="2" fill="#161b22"><title>2026-05-05: 0 contributions</title></rect><rect x="614" y="110" width="11" height="11" rx="2" ry="2" fill="#0e4429"><title>2026-05-06: 1 contributions</title></rect><rect x="614" y="124" width="11" height="11" rx="2" ry="2" fill="#0e4429"><title>2026-05-07: 1 contributions</title></rect><rect x="614" y="138" width="11" height="11" rx="2" ry="2" fill="#161b22"><title>2026-05-08: 0 contributions</title></rect><rect x="614" y="152" width="11" height="11" rx="2" ry="2" fill="#006d32"><title>2026-05-09: 3 contributions</title></rect><rect x="628" y="68" width="11" height="11" rx="2" ry="2" fill="#006d32"><title>2026-05-10: 5 contributions</title></rect><rect x="628" y="82" width="11" height="11" rx="2" ry="2" fill="#161b22"><title>2026-05-11: 0 contributions</title></rect><rect x="628" y="96" width="11" height="11" rx="2" ry="2" fill="#161b22"><title>2026-05-12: 0 contributions</title></rect><rect x="628" y="110" width="11" height="11" rx="2" ry="2" fill="#161b22"><title>2026-05-13: 0 contributions</title></rect><rect x="628" y="124" width="11" height="11" rx="2" ry="2" fill="#161b22"><title>2026-05-14: 0 contributions</title></rect><rect x="628" y="138" width="11" height="11" rx="2" ry="2" fill="#0e4429"><title>2026-05-15: 2 contributions</title></rect><rect x="628" y="152" width="11" height="11" rx="2" ry="2" fill="#006d32"><title>2026-05-16: 5 contributions</title></rect><rect x="642" y="68" width="11" height="11" rx="2" ry="2" fill="#161b22"><title>2026-05-17: 0 contributions</title></rect><rect x="642" y="82" width="11" height="11" rx="2" ry="2" fill="#0e4429"><title>2026-05-18: 1 contributions</title></rect><rect x="642" y="96" width="11" height="11" rx="2" ry="2" fill="#0e4429"><title>2026-05-19: 1 contributions</title></rect><rect x="642" y="110" width="11" height="11" rx="2" ry="2" fill="#161b22"><title>2026-05-20: 0 contributions</title></rect><rect x="642" y="124" width="11" height="11" rx="2" ry="2" fill="#0e4429"><title>2026-05-21: 1 contributions</title></rect><rect x="642" y="138" width="11" height="11" rx="2" ry="2" fill="#161b22"><title>2026-05-22: 0 contributions</title></rect><rect x="642" y="152" width="11" height="11" rx="2" ry="2" fill="#006d32"><title>2026-05-23: 5 contributions</title></rect><rect x="656" y="68" width="11" height="11" rx="2" ry="2" fill="#006d32"><title>2026-05-24: 5 contributions</title></rect><rect x="656" y="82" width="11" height="11" rx="2" ry="2" fill="#161b22"><title>2026-05-25: 0 contributions</title></rect><rect x="656" y="96" width="11" height="11" rx="2" ry="2" fill="#006d32"><title>2026-05-26: 3 contributions</title></rect><rect x="656" y="110" width="11" height="11" rx="2" ry="2" fill="#0e4429"><title>2026-05-27: 2 contributions</title></rect><rect x="656" y="124" width="11" height="11" rx="2" ry="2" fill="#0e4429"><title>2026-05-28: 1 contributions</title></rect><rect x="656" y="138" width="11" height="11" rx="2" ry="2" fill="#0e4429"><title>2026-05-29: 1 contributions</title></rect><rect x="656" y="152" width="11" height="11" rx="2" ry="2" fill="#0e4429"><title>2026-05-30: 1 contributions</title></rect><rect x="670" y="68" width="11" height="11" rx="2" ry="2" fill="#161b22"><title>2026-05-31: 0 contributions</title></rect><rect x="670" y="82" width="11" height="11" rx="2" ry="2" fill="#161b22"><title>2026-06-01: 0 contributions</title></rect><rect x="670" y="96" width="11" height="11" rx="2" ry="2" fill="#0e4429"><title>2026-06-02: 2 contributions</title></rect><rect x="670" y="110" width="11" height="11" rx="2" ry="2" fill="#161b22"><title>2026-06-03: 0 contributions</title></rect><rect x="670" y="124" width="11" height="11" rx="2" ry="2" fill="#0e4429"><title>2026-06-04: 1 contributions</title></rect><rect x="670" y="138" width="11" height="11" rx="2" ry="2" fill="#161b22"><title>2026-06-05: 0 contributions</title></rect><rect x="670" y="152" width="11" height="11" rx="2" ry="2" fill="#006d32"><title>2026-06-06: 4 contributions</title></rect><rect x="684" y="68" width="11" height="11" rx="2" ry="2" fill="#161b22"><title>2026-06-07: 0 contributions</title></rect><rect x="684" y="82" width="11" height="11" rx="2" ry="2" fill="#161b22"><title>2026-06-08: 0 contributions</title></rect><rect x="684" y="96" width="11" height="11" rx="2" ry="2" fill="#161b22"><title>2026-06-09: 0 contributions</title></rect><rect x="684" y="110" width="11" height="11" rx="2" ry="2" fill="#26a641"><title>2026-06-10: 6 contributions</title></rect><rect x="684" y="124" width="11" height="11" rx="2" ry="2" fill="#0e4429"><title>2026-06-11: 1 contributions</title></rect><rect x="684" y="138" width="11" height="11" rx="2" ry="2" fill="#006d32"><title>2026-06-12: 3 contributions</title></rect><rect x="684" y="152" width="11" height="11" rx="2" ry="2" fill="#161b22"><title>2026-06-13: 0 contributions</title></rect><rect x="698" y="68" width="11" height="11" rx="2" ry="2" fill="#161b22"><title>2026-06-14: 0 contributions</title></rect><rect x="698" y="82" width="11" height="11" rx="2" ry="2" fill="#006d32"><title>2026-06-15: 3 contributions</title></rect><rect x="698" y="96" width="11" height="11" rx="2" ry="2" fill="#0e4429"><title>2026-06-16: 2 contributions</title></rect><rect x="698" y="110" width="11" height="11" rx="2" ry="2" fill="#006d32"><title>2026-06-17: 4 contributions</title></rect><rect x="698" y="124" width="11" height="11" rx="2" ry="2" fill="#006d32"><title>2026-06-18: 3 contributions</title></rect><rect x="698" y="138" width="11" height="11" rx="2" ry="2" fill="#0e4429"><title>2026-06-19: 2 contributions</title></rect><rect x="698" y="152" width="11" height="11" rx="2" ry="2" fill="#161b22"><title>2026-06-20: 0 contributions</title></rect><rect x="712" y="68" width="11" height="11" rx="2" ry="2" fill="#0e4429"><title>2026-06-21: 1 contributions</title></rect><rect x="712" y="82" width="11" height="11" rx="2" ry="2" fill="#161b22"><title>2026-06-22: 0 contributions</title></rect><rect x="712" y="96" width="11" height="11" rx="2" ry="2" fill="#0e4429"><title>2026-06-23: 1 contributions</title></rect><rect x="712" y="110" width="11" height="11" rx="2" ry="2" fill="#161b22"><title>2026-06-24: 0 contributions</title></rect><rect x="712" y="124" width="11" height="11" rx="2" ry="2" fill="#006d32"><title>2026-06-25: 3 contributions</title></rect><rect x="712" y="138" width="11" height="11" rx="2" ry="2" fill="#161b22"><title>2026-06-26: 0 contributions</title></rect><rect x="712" y="152" width="11" height="11" rx="2" ry="2" fill="#161b22"><title>2026-06-27: 0 contributions</title></rect><rect x="726" y="68" width="11" height="11" rx="2" ry="2" fill="#161b22"><title>2026-06-28: 0 contributions</title></rect><rect x="726" y="82" width="11" height="11" rx="2" ry="2" fill="#161b22"><title>2026-06-29: 0 contributions</title></rect><rect x="726" y="96" width="11" height="11" rx="2" ry="2" fill="#161b22"><title>2026-06-30: 0 contributions</title></rect><rect x="726" y="110" width="11" height="11" rx="2" ry="2" fill="#161b22"><title>2026-07-01: 0 contributions</title></rect><rect x="726" y="124" width="11" height="11" rx="2" ry="2" fill="#161b22"><title>2026-07-02: 0 contributions</title></rect><rect x="726" y="138" width="11" height="11" rx="2" ry="2" fill="#161b22"><title>2026-07-03: 0 contributions</title></rect><rect x="726" y="152" width="11" height="11" rx="2" ry="2" fill="#161b22"><title>2026-07-04: 0 contributions</title></rect><rect x="740" y="68" width="11" height="11" rx="2" ry="2" fill="#161b22"><title>2026-07-05: 0 contributions</title></rect><rect x="740" y="82" width="11" height="11" rx="2" ry="2" fill="#161b22"><title>2026-07-06: 0 contributions</title></rect><rect x="740" y="96" width="11" height="11" rx="2" ry="2" fill="#161b22"><title>2026-07-07: 0 contributions</title></rect><rect x="740" y="110" width="11" height="11" rx="2" ry="2" fill="#006d32"><title>2026-07-08: 3 contributions</title></rect><rect x="740" y="124" width="11" height="11" rx="2" ry="2" fill="#0e4429"><title>2026-07-09: 2 contributions</title></rect><rect x="740" y="138" width="11" height="11" rx="2" ry="2" fill="#0e4429"><title>2026-07-10: 1 contributions</title></rect><rect x="740" y="152" width="11" height="11" rx="2" ry="2" fill="#161b22"><title>2026-07-11: 0 contributions</title></rect><rect x="754" y="68" width="11" height="11" rx="2" ry="2" fill="#006d32"><title>2026-07-12: 3 contributions</title></rect><rect x="754" y="82" width="11" height="11" rx="2" ry="2" fill="#0e4429"><title>2026-07-13: 2 contributions</title></rect><rect x="754" y="96" width="11" height="11" rx="2" ry="2" fill="#39d353"><title>2026-07-14: 12 contributions</title></rect><rect x="754" y="110" width="11" height="11" rx="2" ry="2" fill="#26a641"><title>2026-07-15: 8 contributions</title></rect><rect x="754" y="124" width="11" height="11" rx="2" ry="2" fill="#39d353"><title>2026-07-16: 11 contributions</title></rect><rect x="754" y="138" width="11" height="11" rx="2" ry="2" fill="#26a641"><title>2026-07-17: 6 contributions</title></rect><rect x="754" y="152" width="11" height="11" rx="2" ry="2" fill="#006d32"><title>2026-07-18: 4 contributions</title></rect><rect x="768" y="68" width="11" height="11" rx="2" ry="2" fill="#0e4429"><title>2026-07-19: 2 contributions</title></rect><rect x="768" y="82" width="11" height="11" rx="2" ry="2" fill="#0e4429"><title>2026-07-20: 1 contributions</title></rect><rect x="768" y="96" width="11" height="11" rx="2" ry="2" fill="#0e4429"><title>2026-07-21: 1 contributions</title></rect><rect x="768" y="110" width="11" height="11" rx="2" ry="2" fill="#0e4429"><title>2026-07-22: 2 contributions</title></rect>

    <text x="672" y="182" font-family="SFMono-Regular, Consolas, monospace" font-size="10" fill="#8b949e">Less</text>
    <rect x="706" y="173" width="11" height="11" rx="2" ry="2" fill="#161b22"/><rect x="720" y="173" width="11" height="11" rx="2" ry="2" fill="#0e4429"/><rect x="734" y="173" width="11" height="11" rx="2" ry="2" fill="#006d32"/><rect x="748" y="173" width="11" height="11" rx="2" ry="2" fill="#26a641"/><rect x="762" y="173" width="11" height="11" rx="2" ry="2" fill="#39d353"/>
    <text x="782" y="182" font-family="SFMono-Regular, Consolas, monospace" font-size="10" fill="#8b949e">More</text>

    <line x1="0" y1="192" x2="822" y2="192" stroke="#21262d" stroke-width="1"/>

    <text x="40" y="210" font-family="SFMono-Regular, Consolas, monospace" font-size="13" fill="#e6edf3">
      <tspan fill="#39d353" font-weight="bold">525</tspan> contributions in the last year
    </text>

    <!-- commented out per request - date range text. uncomment to restore:
    <text x="782" y="210" text-anchor="end" font-family="SFMono-Regular, Consolas, monospace" font-size="12" fill="#8b949e">2025-07-20 → 2026-07-22</text>
    -->

    <!-- commented out per request - streak line. uncomment to restore:
    <text x="40" y="232" font-family="SFMono-Regular, Consolas, monospace" font-size="13" fill="#e6edf3">
      current streak <tspan fill="#39d353" font-weight="bold">11 days</tspan> · longest <tspan fill="#79c0ff" font-weight="bold">11 days</tspan>
    </text>
    -->

    <!-- commented out per request - best day text. uncomment to restore:
    <text x="782" y="232" text-anchor="end" font-family="SFMono-Regular, Consolas, monospace" font-size="12" fill="#8b949e">best day <tspan fill="#ffa657" font-weight="bold">27</tspan> on 2026-01-25</text>
    -->

    <rect x="0.5" y="0.5" width="821" height="235" rx="12" ry="12" fill="none" stroke="#30363d" stroke-width="1"/>
  </g>
</svg>